<svg xmlns="http://www.w3.org/2000/svg" viewBox="0 0 256 256" role="img" aria-label="Blockhaus icon">
  <rect width="256" height="256" rx="56" fill="#17343d"/>
  <path d="M68 64h50c30 0 48 15 48 39 0 14-7 26-20 33 17 7 27 20 27 39 0 27-20 45-53 45H68V64Z" fill="#eef7f5"/>
  <path d="M103 102h18c12 0 18 5 18 14s-7 15-19 15h-17v-29Zm0 64h22c14 0 21 6 21 16s-8 16-22 16h-21v-32Z" fill="#17343d"/>
  <path d="M185 75v46c0 18-12 30-30 30h-17" fill="none" stroke="#57d0bc" stroke-width="13" stroke-linecap="round" stroke-linejoin="round"/>
  <circle cx="185" cy="75" r="16" fill="#57d0bc"/>
  <circle cx="138" cy="151" r="16" fill="#57d0bc"/>
  <circle cx="185" cy="187" r="16" fill="#57d0bc"/>
  <path d="M154 151h8c14 0 23 9 23 23v13" fill="none" stroke="#57d0bc" stroke-width="13" stroke-linecap="round" stroke-linejoin="round"/>
</svg>
